PathFileType	4	(X/Y/Z)	1H_rest_fast_left.trc
DataRate	CameraRate	NumFrames	NumMarkers	Units	OrigDataRate	OrigDataStartFrame	OrigNumFrames
250.00	250.00	8	18	mm	250.00	17259	27614
Frame#	Time	c7	r_should	l_should	clavicle	r_upa	r_elb_l	r_elb_m	r_low	r_wri_l	r_wri_m	r_met	l_upa	l_elb_l	l_elb_m	l_low	l_wri_l	l_wri_m	l_met
	X1	Y1	Z1	X2	Y2	Z2	X3	Y3	Z3	X4	Y4	Z4	X5	Y5	Z5	X6	Y6	Z6	X7	Y7	Z7	X8	Y8	Z8	X9	Y9	Z9	X10	Y10	Z10	X11	Y11	Z11	X12	Y12	Z12	X13	Y13	Z13	X14	Y14	Z14	X15	Y15	Z15	X16	Y16	Z16	X17	Y17	Z17	X18	Y18	Z18
17259	69.03200	621.98090	1420.08093	242.01814	663.29303	1367.40247	405.57983	692.65710	1365.39783	84.35931	751.70703	1281.39062	249.30383	655.40564	1160.48694	480.98969	649.11920	1071.77979	503.56650	606.28101	1035.11035	431.72443	705.53229	896.59821	499.55838	734.35120	831.99921	475.20468	667.67804	809.73315	497.92285	771.28027	757.69653	508.62051	713.57965	1170.87268	28.70410	731.59216	1060.63220	31.31615	659.68573	1027.27173	83.85622	748.58215	887.23596	31.44607	761.60718	811.12909	63.39632	699.14270	793.49219	33.61770	793.49396	741.27863	38.99371
17260	69.03600	622.00726	1420.09082	242.03963	663.36182	1367.39307	405.59460	692.63647	1365.39697	84.37557	751.73151	1281.37708	249.29648	655.51129	1160.49182	481.01620	649.23248	1071.78223	503.58289	606.36774	1035.11267	431.74707	705.61200	896.57288	499.52521	734.42889	831.98724	475.16531	667.76648	809.77625	497.94974	771.37781	757.69293	508.57462	713.55615	1170.86475	28.72871	731.56567	1060.62134	31.34999	659.70551	1027.29565	83.95110	748.54584	887.22632	31.48457	761.56982	811.10858	63.42381	699.12396	793.51660	33.65806	793.45813	741.27338	39.02626
17261	69.04000	622.04181	1420.10693	242.07069	663.43311	1367.38342	405.61209	692.62695	1365.39734	84.38756	751.75800	1281.36328	249.29106	655.61029	1160.48804	481.03287	649.34656	1071.77734	503.59006	606.45428	1035.11877	431.75824	705.68927	896.54779	499.49207	734.50836	831.97418	475.12210	667.85083	809.80865	497.94733	771.47455	757.68335	508.51321	713.53522	1170.85767	28.75588	731.54224	1060.61792	31.38174	659.71228	1027.32300	84.02082	748.50952	887.21649	31.52414	761.53174	811.08679	63.45408	699.10175	793.53461	33.68793	793.42749	741.26483	39.05723
17262	69.04400	622.07635	1420.12122	242.09827	663.50537	1367.37964	405.63571	692.61890	1365.40149	84.39909	751.78290	1281.35083	249.28935	655.70221	1160.47009	481.02652	649.43909	1071.75806	503.57919	606.52942	1035.11646	431.75211	705.76941	896.51495	499.45526	734.58325	831.96027	475.07370	667.92694	809.80408	497.91089	771.55188	757.65430	508.44116	713.50861	1170.84949	28.77541	731.51447	1060.61487	31.40225	659.68567	1027.34045	84.05739	748.47369	887.20862	31.55654	761.49152	811.07123	63.48608	699.06775	793.53162	33.70686	793.39514	741.26544	39.07884
17263	69.04800	622.10632	1420.12793	242.12381	663.57385	1367.37451	405.65903	692.60449	1365.40662	84.41125	751.80750	1281.34985	249.28955	655.77899	1160.43787	481.00342	649.51147	1071.71729	503.55469	606.58179	1035.09802	431.74106	705.84412	896.48285	499.42007	734.65228	831.94171	475.03024	667.99371	809.76025	497.83920	771.61230	757.61078	508.35956	713.47528	1170.83899	28.78993	731.48163	1060.60742	31.42237	659.63470	1027.32642	84.08164	748.43469	887.20361	31.58273	761.44379	811.05194	63.51741	699.00848	793.51550	33.71639	793.35260	741.26306	39.09986
17264	69.05200	622.13666	1420.12659	242.15901	663.63910	1367.35889	405.67966	692.59070	1365.40491	84.42656	751.83240	1281.34485	249.29147	655.83521	1160.39917	480.98575	649.57141	1071.66882	503.53760	606.62506	1035.06250	431.73492	705.91913	896.45862	499.38315	734.70856	831.91791	474.99515	668.05353	809.67310	497.74106	771.66168	757.55798	508.27527	713.43536	1170.82837	28.80958	731.44159	1060.59448	31.44387	659.56281	1027.30627	84.09531	748.38593	887.19147	31.60527	761.39392	811.03705	63.54681	698.93286	793.47455	33.71903	793.30151	741.25403	39.12420
17265	69.05600	622.16309	1420.11572	242.19899	663.69531	1367.34229	405.70920	692.57391	1365.39392	84.44223	751.85181	1281.34351	249.29008	655.88928	1160.35645	480.97073	649.62640	1071.62402	503.52985	606.66382	1035.02893	431.73251	705.99072	896.43329	499.34821	734.76019	831.89087	474.95862	668.10913	809.58179	497.65933	771.70752	757.50684	508.19861	713.38782	1170.81812	28.82219	731.39716	1060.58423	31.46386	659.49408	1027.27014	84.11691	748.32391	887.17401	31.62606	761.34467	811.03156	63.57000	698.85168	793.42676	33.73323	793.23895	741.23969	39.14809
17266	69.06000	622.18549	1420.10144	242.23442	663.74335	1367.32849	405.73822	692.55164	1365.38635	84.46458	751.86346	1281.33911	249.29533	655.94269	1160.33252	480.97897	649.68585	1071.59497	503.53104	606.69940	1035.00940	431.74344	706.05450	896.41669	499.31384	734.79675	831.86584	474.92581	668.17047	809.52222	497.61746	771.75037	757.47015	508.13687	713.33789	1170.81201	28.83515	731.34961	1060.57361	31.48047	659.44373	1027.24353	84.16853	748.25671	887.16132	31.65096	761.28601	811.02924	63.58569	698.77588	793.39062	33.76898	793.17126	741.22467	39.17678
